#!OML:ASF F:\twosubjects\two\Thursday\Session 1\justin.ASF
:FULLY-SPECIFIED
:DEGREES
663
root 11.4466 17.9088 -16.6108 4.87926 -75.1048 2.86976
lowerback 0.0826542 0.541928 -2.03626
upperback -0.782649 0.706751 3.80412
thorax -0.924635 0.370748 5.06426
lowerneck -21.0657 7.30494 -4.78897
upperneck 19.8736 11.5591 0.176673
head 9.4523 4.98677 2.42226
rclavicle 5.96354e-014 4.77083e-015
rhumerus -36.3825 -30.6691 -58.6569
rradius 30.819
rwrist -3.4653
rhand -14.6501 13.3858
rfingers 7.12502
rthumb 11.5022 -16.2786
lclavicle 5.96354e-014 4.77083e-015
lhumerus -37.8686 26.286 72.0845
lradius 30.1429
lwrist -17.5255
lhand 3.18094 38.7194
lfingers 7.12502
lthumb 28.6334 66.5456
rfemur -190.009 -173.751 202.525
rtibia 26.1308
rfoot -21.8434 -11.2723
rtoes -5.69464
lfemur 177.61 175.232 163.008
ltibia 8.22332
lfoot -9.14665 2.52327
ltoes -16.2837
664
root 11.4396 17.908 -16.6137 4.57899 -75.1701 3.27163
lowerback 0.060568 1.83871 -1.70871
upperback -0.846235 2.44911 2.59181
thorax -1.08787 1.24593 3.59338
lowerneck -21.2207 6.22783 -2.49398
upperneck 19.984 9.40095 0.00227223
head 9.70553 4.13465 1.73861
rclavicle 3.12092e-014 2.22639e-014
rhumerus -39.4629 -34.1873 -57.3083
rradius 31.4827
rwrist -3.95521
rhand -14.8467 13.4428
rfingers 7.12502
rthumb 11.3126 -16.2322
lclavicle 3.12092e-014 2.22639e-014
lhumerus -35.6359 21.5642 72.9988
lradius 29.627
lwrist -16.9002
lhand 3.00631 38.6846
lfingers 7.12502
lthumb 28.4666 66.5388
rfemur -190.078 -173.834 202.445
rtibia 26.123
rfoot -21.8587 -11.3371
rtoes -6.11944
lfemur 177.537 175.169 162.924
ltibia 8.17903
lfoot -9.06228 2.42478
ltoes -15.5896
665
root 11.4355 17.9077 -16.6143 4.53472 -75.1345 3.36414
lowerback 0.059147 1.80297 -1.78162
upperback -0.90629 2.40176 2.58796
thorax -1.14808 1.22449 3.63015
lowerneck -21.2094 6.24297 -2.44036
upperneck 20.1283 9.38229 0.113478
head 9.75088 4.13912 1.76964
rclavicle 1.75924e-014 -2.54444e-014
rhumerus -39.4957 -34.0363 -57.3795
rradius 31.5904
rwrist -4.06186
rhand -15.0573 13.3843
rfingers 7.12502
rthumb 11.1095 -16.3016
lclavicle 1.75924e-014 -2.54444e-014
lhumerus -35.7079 21.2178 73.0596
lradius 29.6666
lwrist -16.5189
lhand 2.69403 38.6137
lfingers 7.12502
lthumb 28.1681 66.5175
rfemur -190.154 -173.928 202.448
rtibia 26.1857
rfoot -21.88 -11.4582
rtoes -5.72791
lfemur 177.573 175.203 162.926
ltibia 7.97829
lfoot -8.83989 2.34486
ltoes -14.68
666
root 11.4303 17.9048 -16.6112 4.73865 -75.1793 3.15018
lowerback 0.12115 1.8087 -1.76132
upperback -0.95283 2.40955 2.60704
thorax -1.23127 1.22988 3.63533
lowerneck -21.2027 6.27654 -2.26182
upperneck 20.2213 9.40658 -0.0165035
head 9.79898 4.14444 1.70357
rclavicle -1.63003e-014 5.56597e-015
rhumerus -39.5666 -34.2055 -57.2652
rradius 31.6514
rwrist -3.70766
rhand -15.0158 13.2237
rfingers 7.12502
rthumb 11.1495 -16.46
lclavicle -1.63003e-014 5.56597e-015
lhumerus -35.7641 21.1307 73.0872
lradius 29.6886
lwrist -16.4224
lhand 2.64775 38.4746
lfingers 7.12502
lthumb 28.1239 66.3857
rfemur -190.177 -174.156 202.511
rtibia 26.2709
rfoot -21.9389 -11.5961
rtoes -5.15587
lfemur 177.749 175.154 162.974
ltibia 7.67565
lfoot -8.59976 2.47382
ltoes -15.826
667
root 11.4218 17.901 -16.6084 3.98389 -75.2601 3.93329
lowerback 0.23184 0.216591 -2.70305
upperback -1.00431 0.269697 4.09676
thorax -1.19786 0.166917 5.75791
lowerneck -21.1149 7.52844 -5.28385
upperneck 20.2539 12.0151 0.300986
head 9.54173 5.15567 2.61269
rclavicle 1.76918e-014 -1.11319e-014
rhumerus -35.7499 -29.4896 -58.9285
rradius 30.9193
rwrist -3.25003
rhand -14.8411 13.3176
rfingers 7.12502
rthumb 11.318 -16.357
lclavicle 1.76918e-014 -1.11319e-014
lhumerus -38.5815 26.4524 72.1474
lradius 30.4476
lwrist -16.4637
lhand 2.56461 38.5531
lfingers 7.12502
lthumb 28.0444 66.4772
rfemur -190.162 -174.386 202.285
rtibia 26.3315
rfoot -22.0277 -11.7052
rtoes -5.01286
lfemur 177.891 175.091 162.729
ltibia 7.46878
lfoot -8.51698 2.59502
ltoes -17.5205
668
root 11.4135 17.9005 -16.6021 3.50245 -75.1371 4.46055
lowerback 0.181103 0.635409 -2.69687
upperback -1.0468 0.834282 3.69584
thorax -1.27383 0.453558 5.3248
lowerneck -21.0693 7.06009 -4.68838
upperneck 20.3395 11.1715 0.343068
head 9.6231 4.81279 2.43092
rclavicle 5.29761e-014 4.77083e-014
rhumerus -36.7873 -30.9614 -58.3129
rradius 31.0137
rwrist -2.94802
rhand -14.8775 13.4466
rfingers 7.12502
rthumb 11.2829 -16.23
lclavicle 5.29761e-014 4.77083e-014
lhumerus -37.8647 24.8462 72.6258
lradius 30.4477
lwrist -16.36
lhand 2.26139 38.8169
lfingers 7.12502
lthumb 27.7545 66.788
rfemur -190.164 -174.338 202.119
rtibia 26.3944
rfoot -22.1214 -11.7248
rtoes -4.9201
lfemur 177.988 175.223 162.562
ltibia 7.24984
lfoot -8.5206 2.62495
ltoes -17.4017
669
root 11.4035 17.9002 -16.5927 3.87698 -75.012 4.08958
lowerback 0.0639529 1.17171 -2.21976
upperback -0.959298 1.55595 3.14069
thorax -1.16888 0.806806 4.46396
lowerneck -21.3853 6.53609 -3.65086
upperneck 20.4234 10.181 0.170352
head 9.80597 4.40606 2.10075
rclavicle 7.10655e-014 3.65764e-014
rhumerus -37.9096 -32.891 -57.7786
rradius 31.1643
rwrist -2.7815
rhand -14.7674 13.4087
rfingers 7.12502
rthumb 11.3891 -16.262
lclavicle 7.10655e-014 3.65764e-014
lhumerus -36.7016 22.9307 73.1187
lradius 30.3453
lwrist -16.2819
lhand 1.74329 39.0108
lfingers 7.12502
lthumb 27.2591 67.0608
rfemur -190.147 -174.247 202.209
rtibia 26.4496
rfoot -22.2214 -11.7417
rtoes -4.83315
lfemur 178.139 175.342 162.656
ltibia 6.98575
lfoot -8.54566 2.57517
ltoes -17.2169
670
root 11.3927 17.8976 -16.5865 3.37563 -75.0094 4.54017
lowerback 0.109496 0.0796474 -2.67734
upperback -1.00366 0.088024 4.05056
thorax -1.10629 0.0734006 5.69666
lowerneck -21.1513 7.4303 -5.34718
upperneck 20.4302 11.9521 0.1289
head 9.62293 5.08813 2.5653
rclavicle 2.80286e-014 1.59028e-015
rhumerus -35.4197 -29.3496 -59.0876
rradius 30.741
rwrist -3.07818
rhand -14.7154 13.4658
rfingers 7.12502
rthumb 11.4392 -16.2021
lclavicle 2.80286e-014 1.59028e-015
lhumerus -38.6633 26.4074 72.3484
lradius 30.8827
lwrist -16.2516
lhand 1.52281 39.0239
lfingers 7.12502
lthumb 27.0481 67.1068
rfemur -190.043 -174.269 202.066
rtibia 26.4685
rfoot -22.2803 -11.8063
rtoes -4.98945
lfemur 178.343 175.355 162.531
ltibia 6.81863
lfoot -8.55805 2.45699
ltoes -17.1987
671
root 11.385 17.895 -16.5816 2.88214 -75.0204 4.97701
lowerback 0.175667 0.886863 -2.57879
upperback -1.02183 1.17278 3.3522
thorax -1.27252 0.621767 4.8923
lowerneck -21.1979 6.78158 -3.8607
upperneck 20.6605 10.6577 -0.112133
head 9.85342 4.56397 2.10124
rclavicle 9.14409e-015 -7.95139e-016
rhumerus -37.2169 -31.5562 -58.2274
rradius 31.1202
rwrist -3.54
rhand -15.0781 13.6483
rfingers 7.12502
rthumb 11.0895 -16.0387
lclavicle 9.14409e-015 -7.95139e-016
lhumerus -37.3207 23.6402 73.0134
lradius 30.6198
lwrist -15.9821
lhand 1.79766 39.0503
lfingers 7.12502
lthumb 27.3111 67.0921
rfemur -189.945 -174.392 201.921
rtibia 26.4858
rfoot -22.3313 -11.9093
rtoes -4.64947
lfemur 178.563 175.355 162.395
ltibia 6.60728
lfoot -8.3813 2.45275
ltoes -16.5143
672
root 11.3757 17.8972 -16.5765 3.09388 -75.0956 4.78235
lowerback 0.142987 1.25488 -2.37417
upperback -1.05264 1.66707 3.0658
thorax -1.32206 0.868386 4.46905
lowerneck -21.233 6.47566 -3.32441
upperneck 20.7147 10.0827 -0.178307
head 9.9251 4.33023 1.92167
rclavicle -1.70955e-014 3.97569e-015
rhumerus -37.9724 -32.6631 -57.817
rradius 31.2499
rwrist -3.57542
rhand -15.2146 13.7339
rfingers 7.12502
rthumb 10.9578 -15.9601
lclavicle -1.70955e-014 3.97569e-015
lhumerus -36.7705 22.4357 73.2662
lradius 30.5384
lwrist -15.8551
lhand 2.19856 39.1816
lfingers 7.12502
lthumb 27.6945 67.1624
rfemur -189.943 -174.65 201.961
rtibia 26.5172
rfoot -22.4095 -12.0233
rtoes -3.91487
lfemur 178.751 175.277 162.429
ltibia 6.2913
lfoot -8.18658 2.48307
ltoes -15.7129
673
root 11.3661 17.9009 -16.5714 2.88253 -75.1679 5.06183
lowerback -0.024011 1.37902 -2.34895
upperback -1.03448 1.83482 2.89279
thorax -1.21879 0.949809 4.2762
lowerneck -21.2266 6.38071 -3.05648
upperneck 20.7002 9.86856 -0.196588
head 9.93799 4.25138 1.84398
rclavicle 5.25785e-014 3.57812e-014
rhumerus -38.1484 -33.0774 -57.8092
rradius 31.2853
rwrist -3.42181
rhand -15.1095 13.7892
rfingers 7.12502
rthumb 11.0592 -15.8995
lclavicle 5.25785e-014 3.57812e-014
lhumerus -36.4561 22.0786 73.2639
lradius 30.3653
lwrist -15.9254
lhand 2.49224 39.1535
lfingers 7.12502
lthumb 27.9753 67.0889
rfemur -189.98 -174.781 201.867
rtibia 26.5398
rfoot -22.46 -12.0289
rtoes -3.60767
lfemur 178.864 175.206 162.333
ltibia 6.03891
lfoot -8.21479 2.39065
ltoes -15.5612
674
root 11.361 17.8997 -16.5603 2.60865 -75.1263 5.42338
lowerback -0.182669 1.43334 -2.35479
upperback -1.03819 1.90926 2.77553
thorax -1.13638 0.985582 4.16072
lowerneck -21.3726 6.32493 -2.90713
upperneck 20.9539 9.72457 -0.0558866
head 10.0567 4.20322 1.86299
rclavicle -4.65156e-014 1.11319e-014
rhumerus -38.2264 -32.9727 -57.9077
rradius 31.3998
rwrist -3.72413
rhand -15.0997 13.7336
rfingers 7.12502
rthumb 11.0686 -15.9545
lclavicle -4.65156e-014 1.11319e-014
lhumerus -36.1692 21.8569 73.3285
lradius 30.1562
lwrist -16.0551
lhand 2.43206 38.8996
lfingers 7.12502
lthumb 27.9177 66.8443
rfemur -190.06 -174.6 201.737
rtibia 26.5803
rfoot -22.471 -11.9379
rtoes -3.7393
lfemur 178.981 175.252 162.182
ltibia 5.67931
lfoot -8.1315 2.32525
ltoes -15.6853
675
root 11.3569 17.8973 -16.5449 2.36198 -75.054 5.77824
lowerback -0.339478 1.28487 -2.38244
upperback -1.05447 1.71228 2.85059
thorax -1.05064 0.885858 4.26047
lowerneck -21.4657 6.42896 -3.11366
upperneck 21.1027 9.93166 0.00310117
head 10.1086 4.28202 1.95258
rclavicle 4.79071e-014 -7.95139e-016
rhumerus -37.791 -32.1574 -58.2645
rradius 31.4765
rwrist -4.29296
rhand -15.014 13.5981
rfingers 7.12502
rthumb 11.1512 -16.0856
lclavicle 4.79071e-014 -7.95139e-016
lhumerus -36.2594 22.373 73.2981
lradius 30.1363
lwrist -16.3154
lhand 2.20622 38.6073
lfingers 7.12502
lthumb 27.7018 66.5869
rfemur -190.186 -174.341 201.591
rtibia 26.6597
rfoot -22.4887 -11.8043
rtoes -4.2632
lfemur 179.206 175.327 162.01
ltibia 5.07378
lfoot -7.8131 2.29468
ltoes -15.5683
676
root 11.3487 17.8987 -16.5364 1.65287 -75.0167 6.54163
lowerback -0.470806 1.15115 -2.51326
upperback -1.03492 1.5352 2.85017
thorax -0.944174 0.796197 4.33909
lowerneck -21.2918 6.51719 -3.39067
upperneck 20.913 10.1047 0.0943138
head 9.98457 4.36126 2.03699
rclavicle 5.96354e-016 4.77083e-015
rhumerus -37.4365 -31.7694 -58.5635
rradius 31.5498
rwrist -4.38458
rhand -14.9194 13.3628
rfingers 7.12502
rthumb 11.2425 -16.316
lclavicle 5.96354e-016 4.77083e-015
lhumerus -36.3321 22.5978 73.3174
lradius 30.2199
lwrist -16.1389
lhand 1.90208 38.5664
lfingers 7.12502
lthumb 27.4109 66.5925
rfemur -190.212 -174.245 201.328
rtibia 26.7298
rfoot -22.6002 -11.6585
rtoes -4.60815
lfemur 179.511 175.372 161.762
ltibia 4.49928
lfoot -7.57171 2.31356
ltoes -15.5715
677
root 11.3379 17.901 -16.5333 0.904543 -75.0673 7.34732
lowerback -0.598127 1.20702 -2.69815
upperback -1.03657 1.61267 2.73319
thorax -0.883574 0.835621 4.32459
lowerneck -21.1311 6.45953 -3.46687
upperneck 20.8263 9.99256 0.273188
head 9.9112 4.33233 2.08486
rclavicle -2.21645e-014 -1.90833e-014
rhumerus -37.5153 -31.9072 -58.632
rradius 31.7118
rwrist -4.31607
rhand -14.9757 13.0477
rfingers 7.12502
rthumb 11.1882 -16.634
lclavicle -2.21645e-014 -1.90833e-014
lhumerus -36.2271 22.1425 73.5086
lradius 30.3289
lwrist -15.7354
lhand 1.64573 38.3918
lfingers 7.12502
lthumb 27.1657 66.4564
rfemur -190.223 -174.222 201.081
rtibia 26.7661
rfoot -22.6774 -11.5347
rtoes -4.72616
lfemur 179.781 175.326 161.522
ltibia 4.02506
lfoot -7.37016 2.32484
ltoes -16.8836
